# MagicaVoxel @ Ephtracy

# group
o Factory

# material
mtllib Factory.mtl
usemtl palette

# normals
vn -1 0 0
vn 1 0 0
vn 0 -1 0
vn 0 1 0
vn 0 0 -1
vn 0 0 1

# texcoords
vt 0.0644531 0.5
vt 0.970703 0.5
vt 0.982422 0.5
vt 0.986328 0.5

# verts
v -20 -20 -20
v -20 0 -20
v -20 -14 -16
v -20 -10 -16
v -20 -6 -16
v -20 -2 -16
v -20 -14 -12
v -20 -10 -12
v -20 -6 -12
v -20 -2 -12
v -20 -20 -10
v -20 0 -10
v -13 -17 -10
v -13 -5 -10
v -13 -17 -6
v -13 -5 -6
v 0 0 -20
v 0 3 -20
v 0 11 -20
v 0 20 -20
v 0 14 -16
v 0 18 -16
v 0 3 -12
v 0 11 -12
v 0 14 -12
v 0 18 -12
v 0 -14 -10
v 0 0 -10
v 0 16 -10
v 0 20 -10
v 0 -11 -6
v 0 -7 -6
v 0 -4 -6
v 0 0 -6
v 0 3 -6
v 0 7 -6
v 0 10 -6
v 0 14 -6
v 0 -11 -2
v 0 -7 -2
v 0 -4 -2
v 0 0 -2
v 0 3 -2
v 0 7 -2
v 0 10 -2
v 0 14 -2
v 0 -14 0
v 0 16 0
v 8 -2 0
v 8 2 0
v 8 8 0
v 8 12 0
v 8 -2 20
v 8 2 20
v 8 8 20
v 8 12 20
v -9 -17 -10
v -9 -15 -10
v -9 -11 -10
v -9 -5 -10
v -9 -17 -6
v -9 -15 -6
v -9 -11 -6
v -9 -5 -6
v -4 -15 -10
v -4 -11 -10
v -4 -15 -6
v -4 -11 -6
v 12 -2 0
v 12 2 0
v 12 8 0
v 12 12 0
v 12 -2 20
v 12 2 20
v 12 8 20
v 12 12 20
v 20 -20 -20
v 20 20 -20
v 20 -20 -10
v 20 -14 -10
v 20 16 -10
v 20 20 -10
v 20 -10 -6
v 20 -6 -6
v 20 -3 -6
v 20 1 -6
v 20 4 -6
v 20 8 -6
v 20 -10 -2
v 20 -6 -2
v 20 -3 -2
v 20 1 -2
v 20 4 -2
v 20 8 -2
v 20 -14 0
v 20 16 0
v -20 -20 -20
v -20 -20 -10
v -17 -20 -16
v -17 -20 -12
v -13 -20 -16
v -13 -20 -12
v -10 -20 -16
v -10 -20 -12
v -6 -20 -16
v -6 -20 -12
v -3 -20 -16
v -3 -20 -12
v 1 -20 -16
v 1 -20 -12
v 4 -20 -16
v 4 -20 -12
v 8 -20 -16
v 8 -20 -12
v 11 -20 -16
v 11 -20 -12
v 15 -20 -16
v 15 -20 -12
v 20 -20 -20
v 20 -20 -10
v -13 -17 -10
v -13 -17 -6
v -9 -17 -10
v -9 -17 -6
v -9 -15 -10
v -9 -15 -6
v -4 -15 -10
v -4 -15 -6
v 0 -14 -10
v 0 -14 0
v 5 -14 -6
v 5 -14 -2
v 9 -14 -6
v 9 -14 -2
v 12 -14 -6
v 12 -14 -2
v 16 -14 -6
v 16 -14 -2
v 20 -14 -10
v 20 -14 0
v 8 -2 0
v 8 -2 20
v 12 -2 0
v 12 -2 20
v 8 8 0
v 8 8 20
v 12 8 0
v 12 8 20
v -9 -11 -10
v -9 -11 -6
v -4 -11 -10
v -4 -11 -6
v -13 -5 -10
v -13 -5 -6
v -9 -5 -10
v -9 -5 -6
v -20 0 -20
v -20 0 -10
v -14 0 -16
v -14 0 -12
v -10 0 -16
v -10 0 -12
v -7 0 -16
v -7 0 -12
v -3 0 -16
v -3 0 -12
v 0 0 -20
v 0 0 -10
v 8 2 0
v 8 2 20
v 12 2 0
v 12 2 20
v 8 12 0
v 8 12 20
v 12 12 0
v 12 12 20
v 0 16 -10
v 0 16 0
v 6 16 -6
v 6 16 -2
v 10 16 -6
v 10 16 -2
v 13 16 -6
v 13 16 -2
v 17 16 -6
v 17 16 -2
v 20 16 -10
v 20 16 0
v 0 20 -20
v 0 20 -10
v 20 20 -20
v 20 20 -10
v -20 -20 -20
v 20 -20 -20
v -20 0 -20
v 0 0 -20
v 0 3 -20
v 4 3 -20
v 0 11 -20
v 4 11 -20
v 0 20 -20
v 20 20 -20
v -20 -20 -10
v 20 -20 -10
v -13 -17 -10
v -9 -17 -10
v -9 -15 -10
v -4 -15 -10
v 0 -14 -10
v 20 -14 -10
v -9 -11 -10
v -4 -11 -10
v -13 -5 -10
v -9 -5 -10
v -20 0 -10
v 0 0 -10
v 0 16 -10
v 20 16 -10
v 0 20 -10
v 20 20 -10
v -13 -17 -6
v -9 -17 -6
v -9 -15 -6
v -4 -15 -6
v -9 -11 -6
v -4 -11 -6
v -13 -5 -6
v -9 -5 -6
v 0 -14 0
v 20 -14 0
v 8 -2 0
v 12 -2 0
v 8 2 0
v 12 2 0
v 8 8 0
v 12 8 0
v 8 12 0
v 12 12 0
v 0 16 0
v 20 16 0
v 8 -2 20
v 12 -2 20
v 8 2 20
v 12 2 20
v 8 8 20
v 12 8 20
v 8 12 20
v 12 12 20

# faces
f 3/1/1 2/1/1 1/1/1
f 4/1/1 2/1/1 3/1/1
f 5/1/1 2/1/1 4/1/1
f 6/1/1 2/1/1 5/1/1
f 7/1/1 3/1/1 1/1/1
f 7/2/1 4/2/1 3/2/1
f 8/1/1 5/1/1 4/1/1
f 8/2/1 4/2/1 7/2/1
f 9/2/1 6/2/1 5/2/1
f 9/1/1 5/1/1 8/1/1
f 10/1/1 2/1/1 6/1/1
f 10/2/1 6/2/1 9/2/1
f 11/1/1 9/1/1 8/1/1
f 11/1/1 8/1/1 7/1/1
f 11/1/1 10/1/1 9/1/1
f 11/1/1 7/1/1 1/1/1
f 12/1/1 2/1/1 10/1/1
f 12/1/1 10/1/1 11/1/1
f 15/3/1 14/3/1 13/3/1
f 16/3/1 14/3/1 15/3/1
f 21/1/1 20/1/1 19/1/1
f 22/1/1 20/1/1 21/1/1
f 23/1/1 18/1/1 17/1/1
f 23/2/1 19/2/1 18/2/1
f 24/1/1 21/1/1 19/1/1
f 24/2/1 19/2/1 23/2/1
f 25/2/1 22/2/1 21/2/1
f 25/1/1 21/1/1 24/1/1
f 26/1/1 20/1/1 22/1/1
f 26/2/1 22/2/1 25/2/1
f 28/1/1 25/1/1 24/1/1
f 28/1/1 24/1/1 23/1/1
f 28/1/1 26/1/1 25/1/1
f 28/1/1 23/1/1 17/1/1
f 29/1/1 26/1/1 28/1/1
f 30/1/1 20/1/1 26/1/1
f 30/1/1 26/1/1 29/1/1
f 31/1/1 29/1/1 28/1/1
f 31/1/1 28/1/1 27/1/1
f 32/1/1 29/1/1 31/1/1
f 33/1/1 29/1/1 32/1/1
f 34/1/1 29/1/1 33/1/1
f 35/1/1 29/1/1 34/1/1
f 36/1/1 29/1/1 35/1/1
f 37/1/1 29/1/1 36/1/1
f 38/1/1 29/1/1 37/1/1
f 39/1/1 31/1/1 27/1/1
f 39/2/1 32/2/1 31/2/1
f 40/1/1 33/1/1 32/1/1
f 40/2/1 32/2/1 39/2/1
f 41/2/1 34/2/1 33/2/1
f 41/1/1 33/1/1 40/1/1
f 42/1/1 35/1/1 34/1/1
f 42/2/1 34/2/1 41/2/1
f 43/2/1 36/2/1 35/2/1
f 43/1/1 35/1/1 42/1/1
f 44/1/1 37/1/1 36/1/1
f 44/2/1 36/2/1 43/2/1
f 45/2/1 38/2/1 37/2/1
f 45/1/1 37/1/1 44/1/1
f 46/1/1 29/1/1 38/1/1
f 46/2/1 38/2/1 45/2/1
f 47/1/1 45/1/1 44/1/1
f 47/1/1 44/1/1 43/1/1
f 47/1/1 46/1/1 45/1/1
f 47/1/1 43/1/1 42/1/1
f 47/1/1 42/1/1 41/1/1
f 47/1/1 41/1/1 40/1/1
f 47/1/1 40/1/1 39/1/1
f 47/1/1 39/1/1 27/1/1
f 48/1/1 29/1/1 46/1/1
f 48/1/1 46/1/1 47/1/1
f 53/4/1 50/4/1 49/4/1
f 54/4/1 50/4/1 53/4/1
f 55/4/1 52/4/1 51/4/1
f 56/4/1 52/4/1 55/4/1
f 57/3/2 58/3/2 61/3/2
f 61/3/2 58/3/2 62/3/2
f 59/3/2 60/3/2 63/3/2
f 63/3/2 60/3/2 64/3/2
f 65/3/2 66/3/2 67/3/2
f 67/3/2 66/3/2 68/3/2
f 69/4/2 70/4/2 73/4/2
f 73/4/2 70/4/2 74/4/2
f 71/4/2 72/4/2 75/4/2
f 75/4/2 72/4/2 76/4/2
f 77/1/2 78/1/2 79/1/2
f 79/1/2 78/1/2 80/1/2
f 80/1/2 78/1/2 81/1/2
f 81/1/2 78/1/2 82/1/2
f 80/1/2 81/1/2 83/1/2
f 83/1/2 81/1/2 84/1/2
f 84/1/2 81/1/2 85/1/2
f 85/1/2 81/1/2 86/1/2
f 86/1/2 81/1/2 87/1/2
f 87/1/2 81/1/2 88/1/2
f 80/1/2 83/1/2 89/1/2
f 83/2/2 84/2/2 89/2/2
f 84/1/2 85/1/2 90/1/2
f 89/2/2 84/2/2 90/2/2
f 85/2/2 86/2/2 91/2/2
f 90/1/2 85/1/2 91/1/2
f 86/1/2 87/1/2 92/1/2
f 91/2/2 86/2/2 92/2/2
f 87/2/2 88/2/2 93/2/2
f 92/1/2 87/1/2 93/1/2
f 88/1/2 81/1/2 94/1/2
f 93/2/2 88/2/2 94/2/2
f 92/1/2 93/1/2 95/1/2
f 91/1/2 92/1/2 95/1/2
f 93/1/2 94/1/2 95/1/2
f 90/1/2 91/1/2 95/1/2
f 89/1/2 90/1/2 95/1/2
f 80/1/2 89/1/2 95/1/2
f 94/1/2 81/1/2 96/1/2
f 95/1/2 94/1/2 96/1/2
f 99/1/3 98/1/3 97/1/3
f 100/1/3 98/1/3 99/1/3
f 101/1/3 99/1/3 97/1/3
f 101/2/3 100/2/3 99/2/3
f 102/1/3 98/1/3 100/1/3
f 102/2/3 100/2/3 101/2/3
f 103/1/3 101/1/3 97/1/3
f 103/1/3 102/1/3 101/1/3
f 104/1/3 98/1/3 102/1/3
f 104/1/3 102/1/3 103/1/3
f 105/1/3 103/1/3 97/1/3
f 105/2/3 104/2/3 103/2/3
f 106/1/3 98/1/3 104/1/3
f 106/2/3 104/2/3 105/2/3
f 107/1/3 105/1/3 97/1/3
f 107/1/3 106/1/3 105/1/3
f 108/1/3 98/1/3 106/1/3
f 108/1/3 106/1/3 107/1/3
f 109/1/3 107/1/3 97/1/3
f 109/2/3 108/2/3 107/2/3
f 110/1/3 98/1/3 108/1/3
f 110/2/3 108/2/3 109/2/3
f 111/1/3 109/1/3 97/1/3
f 111/1/3 110/1/3 109/1/3
f 112/1/3 98/1/3 110/1/3
f 112/1/3 110/1/3 111/1/3
f 113/1/3 111/1/3 97/1/3
f 113/2/3 112/2/3 111/2/3
f 114/1/3 98/1/3 112/1/3
f 114/2/3 112/2/3 113/2/3
f 115/1/3 113/1/3 97/1/3
f 115/1/3 114/1/3 113/1/3
f 116/1/3 98/1/3 114/1/3
f 116/1/3 114/1/3 115/1/3
f 117/1/3 115/1/3 97/1/3
f 117/2/3 116/2/3 115/2/3
f 118/1/3 98/1/3 116/1/3
f 118/2/3 116/2/3 117/2/3
f 119/1/3 117/1/3 97/1/3
f 119/1/3 118/1/3 117/1/3
f 120/1/3 98/1/3 118/1/3
f 120/1/3 118/1/3 119/1/3
f 123/3/3 122/3/3 121/3/3
f 124/3/3 122/3/3 123/3/3
f 127/3/3 126/3/3 125/3/3
f 128/3/3 126/3/3 127/3/3
f 131/1/3 130/1/3 129/1/3
f 132/1/3 130/1/3 131/1/3
f 133/1/3 131/1/3 129/1/3
f 133/2/3 132/2/3 131/2/3
f 134/1/3 130/1/3 132/1/3
f 134/2/3 132/2/3 133/2/3
f 135/1/3 133/1/3 129/1/3
f 135/1/3 134/1/3 133/1/3
f 136/1/3 130/1/3 134/1/3
f 136/1/3 134/1/3 135/1/3
f 137/1/3 135/1/3 129/1/3
f 137/2/3 136/2/3 135/2/3
f 138/1/3 130/1/3 136/1/3
f 138/2/3 136/2/3 137/2/3
f 139/1/3 137/1/3 129/1/3
f 139/1/3 138/1/3 137/1/3
f 140/1/3 130/1/3 138/1/3
f 140/1/3 138/1/3 139/1/3
f 143/4/3 142/4/3 141/4/3
f 144/4/3 142/4/3 143/4/3
f 147/4/3 146/4/3 145/4/3
f 148/4/3 146/4/3 147/4/3
f 149/3/4 150/3/4 151/3/4
f 151/3/4 150/3/4 152/3/4
f 153/3/4 154/3/4 155/3/4
f 155/3/4 154/3/4 156/3/4
f 157/1/4 158/1/4 159/1/4
f 159/1/4 158/1/4 160/1/4
f 157/1/4 159/1/4 161/1/4
f 159/2/4 160/2/4 161/2/4
f 160/1/4 158/1/4 162/1/4
f 161/2/4 160/2/4 162/2/4
f 157/1/4 161/1/4 163/1/4
f 161/1/4 162/1/4 163/1/4
f 162/1/4 158/1/4 164/1/4
f 163/1/4 162/1/4 164/1/4
f 157/1/4 163/1/4 165/1/4
f 163/2/4 164/2/4 165/2/4
f 164/1/4 158/1/4 166/1/4
f 165/2/4 164/2/4 166/2/4
f 157/1/4 165/1/4 167/1/4
f 165/1/4 166/1/4 167/1/4
f 166/1/4 158/1/4 168/1/4
f 167/1/4 166/1/4 168/1/4
f 169/4/4 170/4/4 171/4/4
f 171/4/4 170/4/4 172/4/4
f 173/4/4 174/4/4 175/4/4
f 175/4/4 174/4/4 176/4/4
f 177/1/4 178/1/4 179/1/4
f 179/1/4 178/1/4 180/1/4
f 177/1/4 179/1/4 181/1/4
f 179/2/4 180/2/4 181/2/4
f 180/1/4 178/1/4 182/1/4
f 181/2/4 180/2/4 182/2/4
f 177/1/4 181/1/4 183/1/4
f 181/1/4 182/1/4 183/1/4
f 182/1/4 178/1/4 184/1/4
f 183/1/4 182/1/4 184/1/4
f 177/1/4 183/1/4 185/1/4
f 183/2/4 184/2/4 185/2/4
f 184/1/4 178/1/4 186/1/4
f 185/2/4 184/2/4 186/2/4
f 177/1/4 185/1/4 187/1/4
f 185/1/4 186/1/4 187/1/4
f 186/1/4 178/1/4 188/1/4
f 187/1/4 186/1/4 188/1/4
f 189/1/4 190/1/4 191/1/4
f 191/1/4 190/1/4 192/1/4
f 195/1/5 194/1/5 193/1/5
f 196/1/5 194/1/5 195/1/5
f 197/1/5 194/1/5 196/1/5
f 198/1/5 194/1/5 197/1/5
f 199/2/5 198/2/5 197/2/5
f 200/1/5 194/1/5 198/1/5
f 200/2/5 198/2/5 199/2/5
f 201/1/5 200/1/5 199/1/5
f 202/1/5 194/1/5 200/1/5
f 202/1/5 200/1/5 201/1/5
f 203/1/6 204/1/6 205/1/6
f 205/1/6 204/1/6 206/1/6
f 206/1/6 204/1/6 207/1/6
f 207/1/6 204/1/6 208/1/6
f 208/1/6 204/1/6 209/1/6
f 209/1/6 204/1/6 210/1/6
f 208/1/6 209/1/6 212/1/6
f 203/1/6 205/1/6 213/1/6
f 211/1/6 212/1/6 214/1/6
f 203/1/6 213/1/6 215/1/6
f 213/1/6 214/1/6 215/1/6
f 214/1/6 212/1/6 216/1/6
f 215/1/6 214/1/6 216/1/6
f 212/1/6 209/1/6 216/1/6
f 217/1/6 218/1/6 219/1/6
f 219/1/6 218/1/6 220/1/6
f 221/3/6 222/3/6 223/3/6
f 221/3/6 223/3/6 225/3/6
f 223/3/6 224/3/6 225/3/6
f 225/3/6 224/3/6 226/3/6
f 221/3/6 225/3/6 227/3/6
f 227/3/6 225/3/6 228/3/6
f 229/1/6 230/1/6 231/1/6
f 231/1/6 230/1/6 232/1/6
f 229/1/6 231/1/6 233/1/6
f 232/1/6 230/1/6 234/1/6
f 229/1/6 233/1/6 235/1/6
f 233/1/6 234/1/6 235/1/6
f 234/1/6 230/1/6 236/1/6
f 235/1/6 234/1/6 236/1/6
f 229/1/6 235/1/6 237/1/6
f 236/1/6 230/1/6 238/1/6
f 229/1/6 237/1/6 239/1/6
f 237/1/6 238/1/6 239/1/6
f 238/1/6 230/1/6 240/1/6
f 239/1/6 238/1/6 240/1/6
f 241/4/6 242/4/6 243/4/6
f 243/4/6 242/4/6 244/4/6
f 245/4/6 246/4/6 247/4/6
f 247/4/6 246/4/6 248/4/6
