# MagicaVoxel @ Ephtracy

# group
o Right edge

# material
mtllib Land-0-Right edge.mtl
usemtl palette

# normals
vn -1 0 0
vn 1 0 0
vn 0 -1 0
vn 0 1 0
vn 0 0 -1
vn 0 0 1

# texcoords
vt 0.662109 0.5
vt 0.666016 0.5

# verts
v 178 0 -124
v 178 1 -124
v 178 0 0
v 178 1 0
v 200 0 -124
v 200 1 -124
v 200 0 0
v 200 1 0
v 178 0 -124
v 178 0 0
v 189 0 -12
v 189 0 -11
v 190 0 -12
v 190 0 -11
v 192 0 -75
v 192 0 -74
v 193 0 -97
v 193 0 -96
v 193 0 -75
v 193 0 -74
v 194 0 -97
v 194 0 -96
v 195 0 -52
v 195 0 -51
v 196 0 -52
v 196 0 -51
v 196 0 -26
v 196 0 -25
v 197 0 -26
v 197 0 -25
v 200 0 -124
v 200 0 0
v 178 1 -124
v 178 1 0
v 189 1 -12
v 189 1 -11
v 190 1 -12
v 190 1 -11
v 192 1 -75
v 192 1 -74
v 193 1 -97
v 193 1 -96
v 193 1 -75
v 193 1 -74
v 194 1 -97
v 194 1 -96
v 195 1 -52
v 195 1 -51
v 196 1 -52
v 196 1 -51
v 196 1 -26
v 196 1 -25
v 197 1 -26
v 197 1 -25
v 200 1 -124
v 200 1 0
v 178 0 -124
v 200 0 -124
v 178 1 -124
v 200 1 -124
v 178 0 0
v 200 0 0
v 178 1 0
v 200 1 0

# faces
f 3/2/1 2/2/1 1/2/1
f 4/2/1 2/2/1 3/2/1
f 5/2/2 6/2/2 7/2/2
f 7/2/2 6/2/2 8/2/2
f 11/2/3 10/2/3 9/2/3
f 12/2/3 10/2/3 11/2/3
f 13/2/3 11/2/3 9/2/3
f 13/1/3 12/1/3 11/1/3
f 14/2/3 10/2/3 12/2/3
f 14/1/3 12/1/3 13/1/3
f 15/2/3 13/2/3 9/2/3
f 15/2/3 14/2/3 13/2/3
f 16/2/3 14/2/3 15/2/3
f 17/2/3 15/2/3 9/2/3
f 18/2/3 15/2/3 17/2/3
f 19/1/3 16/1/3 15/1/3
f 19/2/3 15/2/3 18/2/3
f 20/2/3 14/2/3 16/2/3
f 20/1/3 16/1/3 19/1/3
f 21/1/3 18/1/3 17/1/3
f 21/2/3 17/2/3 9/2/3
f 22/2/3 19/2/3 18/2/3
f 22/1/3 18/1/3 21/1/3
f 22/2/3 20/2/3 19/2/3
f 23/2/3 14/2/3 20/2/3
f 23/2/3 20/2/3 22/2/3
f 23/2/3 22/2/3 21/2/3
f 24/2/3 14/2/3 23/2/3
f 25/2/3 23/2/3 21/2/3
f 25/1/3 24/1/3 23/1/3
f 26/2/3 14/2/3 24/2/3
f 26/1/3 24/1/3 25/1/3
f 27/2/3 14/2/3 26/2/3
f 28/2/3 14/2/3 27/2/3
f 29/2/3 26/2/3 25/2/3
f 29/2/3 27/2/3 26/2/3
f 29/1/3 28/1/3 27/1/3
f 30/2/3 14/2/3 28/2/3
f 30/1/3 28/1/3 29/1/3
f 31/2/3 21/2/3 9/2/3
f 31/2/3 25/2/3 21/2/3
f 31/2/3 30/2/3 29/2/3
f 31/2/3 29/2/3 25/2/3
f 32/2/3 10/2/3 14/2/3
f 32/2/3 30/2/3 31/2/3
f 32/2/3 14/2/3 30/2/3
f 33/2/4 34/2/4 35/2/4
f 35/2/4 34/2/4 36/2/4
f 33/2/4 35/2/4 37/2/4
f 35/1/4 36/1/4 37/1/4
f 36/2/4 34/2/4 38/2/4
f 37/1/4 36/1/4 38/1/4
f 33/2/4 37/2/4 39/2/4
f 37/2/4 38/2/4 39/2/4
f 39/2/4 38/2/4 40/2/4
f 33/2/4 39/2/4 41/2/4
f 41/2/4 39/2/4 42/2/4
f 39/1/4 40/1/4 43/1/4
f 42/2/4 39/2/4 43/2/4
f 40/2/4 38/2/4 44/2/4
f 43/1/4 40/1/4 44/1/4
f 41/1/4 42/1/4 45/1/4
f 33/2/4 41/2/4 45/2/4
f 42/2/4 43/2/4 46/2/4
f 45/1/4 42/1/4 46/1/4
f 43/2/4 44/2/4 46/2/4
f 44/2/4 38/2/4 47/2/4
f 46/2/4 44/2/4 47/2/4
f 45/2/4 46/2/4 47/2/4
f 47/2/4 38/2/4 48/2/4
f 45/2/4 47/2/4 49/2/4
f 47/1/4 48/1/4 49/1/4
f 48/2/4 38/2/4 50/2/4
f 49/1/4 48/1/4 50/1/4
f 50/2/4 38/2/4 51/2/4
f 51/2/4 38/2/4 52/2/4
f 49/2/4 50/2/4 53/2/4
f 50/2/4 51/2/4 53/2/4
f 51/1/4 52/1/4 53/1/4
f 52/2/4 38/2/4 54/2/4
f 53/1/4 52/1/4 54/1/4
f 33/2/4 45/2/4 55/2/4
f 45/2/4 49/2/4 55/2/4
f 53/2/4 54/2/4 55/2/4
f 49/2/4 53/2/4 55/2/4
f 38/2/4 34/2/4 56/2/4
f 55/2/4 54/2/4 56/2/4
f 54/2/4 38/2/4 56/2/4
f 59/2/5 58/2/5 57/2/5
f 60/2/5 58/2/5 59/2/5
f 61/2/6 62/2/6 63/2/6
f 63/2/6 62/2/6 64/2/6
