# Blender v2.80 (sub 75) OBJ File: ''
# www.blender.org
mtllib Player-0-Roter.mtl
o Roter
v -0.500000 0.000000 -1.000000
v -0.500000 1.000000 3.000000
v -0.500000 1.000000 -1.000000
v -0.500000 -0.000000 1.000000
v -0.500000 -0.000000 3.000000
v -0.500000 0.999999 4.000000
v -0.500000 -0.000001 4.000000
v -0.500000 -0.999999 -4.000000
v -0.500000 0.000000 -3.000000
v -0.500000 0.000001 -4.000000
v -0.500000 -1.000000 -3.000000
v -0.500000 -1.000000 1.000000
v 0.500000 1.000000 -1.000000
v 0.500000 1.000000 3.000000
v 0.500000 0.000000 -1.000000
v 0.500000 -0.000000 1.000000
v 0.500000 0.999999 4.000000
v 0.500000 -0.000000 3.000000
v 0.500000 -0.000001 4.000000
v 0.500000 0.000001 -4.000000
v 0.500000 0.000000 -3.000000
v 0.500000 -0.999999 -4.000000
v 0.500000 -1.000000 -3.000000
v 0.500000 -1.000000 1.000000
v 0.500000 0.000001 -4.000000
v -0.500000 -0.999999 -4.000000
v -0.500000 0.000001 -4.000000
v 0.500000 -0.999999 -4.000000
v 0.500000 1.000000 -1.000000
v -0.500000 0.000000 -1.000000
v -0.500000 1.000000 -1.000000
v 0.500000 0.000000 -1.000000
v -0.500000 -0.000000 1.000000
v -0.500000 -1.000000 1.000000
v 0.500000 -0.000000 1.000000
v 0.500000 -1.000000 1.000000
v -0.500000 0.999999 4.000000
v -0.500000 -0.000001 4.000000
v 0.500000 0.999999 4.000000
v 0.500000 -0.000001 4.000000
v -0.500000 1.000000 3.000000
v 0.500000 1.000000 -1.000000
v -0.500000 1.000000 -1.000000
v 0.500000 1.000000 3.000000
v -0.500000 0.999999 4.000000
v 0.500000 0.999999 4.000000
v -0.500000 0.000000 -3.000000
v 0.500000 0.000001 -4.000000
v -0.500000 0.000001 -4.000000
v 0.500000 0.000000 -3.000000
v -0.500000 0.000000 -1.000000
v 0.500000 0.000000 -1.000000
v -0.500000 -0.000000 1.000000
v 0.500000 -0.000000 1.000000
v -0.500000 -0.000000 3.000000
v 0.500000 -0.000000 3.000000
v -0.500000 -0.000001 4.000000
v 0.500000 -0.000001 4.000000
v -0.500000 -0.999999 -4.000000
v 0.500000 -0.999999 -4.000000
v -0.500000 -1.000000 -3.000000
v 0.500000 -1.000000 -3.000000
v -0.500000 -1.000000 1.000000
v 0.500000 -1.000000 1.000000
vt 0.986328 0.500000
vt 0.986328 0.500000
vt 0.986328 0.500000
vt 0.986328 0.500000
vt 0.841797 0.500000
vt 0.841797 0.500000
vt 0.841797 0.500000
vt 0.986328 0.500000
vt 0.841797 0.500000
vt 0.775391 0.500000
vt 0.775391 0.500000
vt 0.775391 0.500000
vt 0.986328 0.500000
vt 0.775391 0.500000
vt 0.986328 0.500000
vt 0.986328 0.500000
vt 0.986328 0.500000
vt 0.986328 0.500000
vt 0.986328 0.500000
vt 0.986328 0.500000
vt 0.841797 0.500000
vt 0.841797 0.500000
vt 0.841797 0.500000
vt 0.986328 0.500000
vt 0.841797 0.500000
vt 0.775391 0.500000
vt 0.775391 0.500000
vt 0.775391 0.500000
vt 0.986328 0.500000
vt 0.775391 0.500000
vt 0.986328 0.500000
vt 0.986328 0.500000
vt 0.775391 0.500000
vt 0.775391 0.500000
vt 0.775391 0.500000
vt 0.775391 0.500000
vt 0.986328 0.500000
vt 0.986328 0.500000
vt 0.986328 0.500000
vt 0.986328 0.500000
vt 0.986328 0.500000
vt 0.986328 0.500000
vt 0.986328 0.500000
vt 0.986328 0.500000
vt 0.841797 0.500000
vt 0.841797 0.500000
vt 0.841797 0.500000
vt 0.841797 0.500000
vt 0.986328 0.500000
vt 0.986328 0.500000
vt 0.986328 0.500000
vt 0.986328 0.500000
vt 0.841797 0.500000
vt 0.841797 0.500000
vt 0.841797 0.500000
vt 0.841797 0.500000
vt 0.775391 0.500000
vt 0.775391 0.500000
vt 0.775391 0.500000
vt 0.775391 0.500000
vt 0.986328 0.500000
vt 0.986328 0.500000
vt 0.986328 0.500000
vt 0.986328 0.500000
vt 0.986328 0.500000
vt 0.986328 0.500000
vt 0.986328 0.500000
vt 0.986328 0.500000
vt 0.841797 0.500000
vt 0.841797 0.500000
vt 0.841797 0.500000
vt 0.841797 0.500000
vt 0.775391 0.500000
vt 0.775391 0.500000
vt 0.775391 0.500000
vt 0.775391 0.500000
vt 0.986328 0.500000
vt 0.986328 0.500000
vt 0.986328 0.500000
vt 0.986328 0.500000
vn -1.0000 -0.0000 0.0000
vn 1.0000 0.0000 0.0000
vn 0.0000 0.0000 -1.0000
vn 0.0000 -0.0000 1.0000
vn 0.0000 1.0000 0.0000
vn 0.0000 -1.0000 -0.0000
usemtl palette
s 1
f 1/1/1 2/2/1 3/3/1
s 2
f 4/4/1 2/2/1 1/1/1
s 3
f 5/5/1 6/6/1 2/7/1
s 4
f 5/8/1 2/2/1 4/4/1
s 5
f 7/9/1 6/6/1 5/5/1
s 6
f 8/10/1 9/11/1 10/12/1
s 7
f 11/13/1 4/4/1 1/1/1
s 8
f 11/14/1 9/11/1 8/10/1
s 9
f 11/13/1 1/1/1 9/15/1
s 10
f 12/16/1 4/4/1 11/13/1
s 11
f 13/17/2 14/18/2 15/19/2
s 12
f 15/19/2 14/18/2 16/20/2
s 13
f 14/21/2 17/22/2 18/23/2
s 14
f 16/20/2 14/18/2 18/24/2
s 15
f 18/23/2 17/22/2 19/25/2
s 16
f 20/26/2 21/27/2 22/28/2
s 17
f 15/19/2 16/20/2 23/29/2
s 18
f 22/28/2 21/27/2 23/30/2
s 19
f 21/31/2 15/19/2 23/29/2
s 20
f 23/29/2 16/20/2 24/32/2
s 21
f 25/33/3 26/34/3 27/35/3
s 22
f 28/36/3 26/34/3 25/33/3
s 23
f 29/37/3 30/38/3 31/39/3
s 24
f 32/40/3 30/38/3 29/37/3
s 25
f 33/41/4 34/42/4 35/43/4
s 26
f 35/43/4 34/42/4 36/44/4
s 27
f 37/45/4 38/46/4 39/47/4
s 28
f 39/47/4 38/46/4 40/48/4
s 29
f 41/49/5 42/50/5 43/51/5
s 30
f 44/52/5 42/50/5 41/49/5
s 31
f 45/53/5 44/54/5 41/55/5
s 32
f 46/56/5 44/54/5 45/53/5
s 33
f 47/57/5 48/58/5 49/59/5
s 34
f 50/60/5 48/58/5 47/57/5
s 35
f 51/61/5 50/62/5 47/63/5
s 36
f 52/64/5 50/62/5 51/61/5
s 37
f 53/65/6 54/66/6 55/67/6
s 38
f 55/67/6 54/66/6 56/68/6
s 39
f 55/69/6 56/70/6 57/71/6
s 40
f 57/71/6 56/70/6 58/72/6
s 41
f 59/73/6 60/74/6 61/75/6
s 42
f 61/75/6 60/74/6 62/76/6
s 43
f 61/77/6 62/78/6 63/79/6
s 44
f 63/79/6 62/78/6 64/80/6
