# MagicaVoxel @ Ephtracy

# group
o 

# material
mtllib Tank.mtl
usemtl palette

# normals
vn -1 0 0
vn 1 0 0
vn 0 -1 0
vn 0 1 0
vn 0 0 -1
vn 0 0 1

# texcoords
vt 0.0644531 0.5
vt 0.962891 0.5
vt 0.982422 0.5
vt 0.990234 0.5

# verts
v -10 -10 -5
v -10 9 -5
v -10 -10 0
v -10 8 0
v -10 9 0
v -10 6 2
v -10 8 2
v -10 -10 3
v -10 6 3
v -3 -6 0
v -3 -3 0
v -3 -6 3
v -3 -3 3
v -3 0 3
v -3 -3 6
v -3 0 6
v -2 -9 0
v -2 -8 0
v -2 -7 0
v -2 -6 0
v -2 -9 1
v -2 -8 1
v -2 -7 1
v -2 -6 1
v -2 0 1
v -2 10 1
v -2 -5 3
v -2 -3 3
v -2 -5 5
v -2 -3 5
v -2 0 5
v -2 10 5
v -1 -8 0
v -1 -7 0
v -1 -8 1
v -1 -7 1
v 1 -9 0
v 1 -8 0
v 1 -7 0
v 1 -6 0
v 1 -9 1
v 1 -8 1
v 1 -7 1
v 1 -6 1
v 4 -9 0
v 4 -8 0
v 4 -9 1
v 4 -8 1
v 5 -10 -1
v 5 -9 -1
v 5 -9 0
v 5 -8 0
v 5 -3 0
v 5 -9 1
v 5 -8 1
v 5 -10 3
v 5 -3 3
v 6 -10 -5
v 6 -7 -5
v 6 3 -5
v 6 9 -5
v 6 -9 -4
v 6 -7 -4
v 6 3 -4
v 6 7 -4
v 6 -10 -1
v 6 -9 -1
v 6 2 0
v 6 7 0
v 6 8 0
v 6 9 0
v 6 2 2
v 6 8 2
v 7 0 0
v 7 2 0
v 7 2 2
v 7 6 2
v 7 0 3
v 7 6 3
v -7 0 0
v -7 2 0
v -7 2 2
v -7 6 2
v -7 0 3
v -7 6 3
v -6 -10 -5
v -6 -7 -5
v -6 3 -5
v -6 9 -5
v -6 -9 -4
v -6 -7 -4
v -6 3 -4
v -6 7 -4
v -6 -10 -1
v -6 -9 -1
v -6 2 0
v -6 7 0
v -6 8 0
v -6 9 0
v -6 2 2
v -6 8 2
v -5 -10 -1
v -5 -9 -1
v -5 -9 0
v -5 -8 0
v -5 -3 0
v -5 -9 1
v -5 -8 1
v -5 -10 3
v -5 -3 3
v -3 -9 0
v -3 -8 0
v -3 -9 1
v -3 -8 1
v -1 -9 0
v -1 -8 0
v -1 -7 0
v -1 -6 0
v -1 -9 1
v -1 -8 1
v -1 -7 1
v -1 -6 1
v 1 -8 0
v 1 -7 0
v 1 -8 1
v 1 -7 1
v 2 -9 0
v 2 -8 0
v 2 -7 0
v 2 -6 0
v 2 -9 1
v 2 -8 1
v 2 -7 1
v 2 -6 1
v 2 0 1
v 2 10 1
v 2 -5 3
v 2 -3 3
v 2 -5 5
v 2 -3 5
v 2 0 5
v 2 10 5
v 3 -6 0
v 3 -3 0
v 3 -6 3
v 3 -3 3
v 3 0 3
v 3 -3 6
v 3 0 6
v 10 -10 -5
v 10 9 -5
v 10 -10 0
v 10 8 0
v 10 9 0
v 10 6 2
v 10 8 2
v 10 -10 3
v 10 6 3
v -10 -10 -5
v -10 -10 0
v -10 -10 3
v -6 -10 -5
v -6 -10 -1
v -6 -10 0
v -5 -10 -1
v -5 -10 3
v 5 -10 -1
v 5 -10 3
v 6 -10 -5
v 6 -10 -1
v 6 -10 0
v 10 -10 -5
v 10 -10 0
v 10 -10 3
v -6 -9 -4
v -6 -9 -1
v -5 -9 -1
v -5 -9 0
v -5 -9 1
v -3 -9 0
v -3 -9 1
v -2 -9 0
v -2 -9 1
v -1 -9 0
v -1 -9 1
v 1 -9 0
v 1 -9 1
v 2 -9 0
v 2 -9 1
v 4 -9 0
v 4 -9 1
v 5 -9 -1
v 5 -9 0
v 5 -9 1
v 6 -9 -4
v 6 -9 -1
v -1 -8 0
v -1 -8 1
v 1 -8 0
v 1 -8 1
v -6 -7 -5
v -6 -7 -4
v -2 -7 0
v -2 -7 1
v -1 -7 0
v -1 -7 1
v 1 -7 0
v 1 -7 1
v 2 -7 0
v 2 -7 1
v 6 -7 -5
v 6 -7 -4
v -3 -6 0
v -3 -6 3
v -2 -6 0
v -2 -6 1
v -1 -6 0
v -1 -6 1
v 1 -6 0
v 1 -6 1
v 2 -6 0
v 2 -6 1
v 3 -6 0
v 3 -6 3
v -2 -5 3
v -2 -5 5
v 2 -5 3
v 2 -5 5
v -5 -3 0
v -5 -3 3
v -3 -3 0
v -3 -3 3
v -3 -3 6
v -2 -3 3
v -2 -3 5
v 2 -3 3
v 2 -3 5
v 3 -3 0
v 3 -3 3
v 3 -3 6
v 5 -3 0
v 5 -3 3
v -7 2 0
v -7 2 2
v -6 2 0
v -6 2 2
v 6 2 0
v 6 2 2
v 7 2 0
v 7 2 2
v -5 -8 0
v -5 -8 1
v -3 -8 0
v -3 -8 1
v -2 -8 0
v -2 -8 1
v -1 -8 0
v -1 -8 1
v 1 -8 0
v 1 -8 1
v 2 -8 0
v 2 -8 1
v 4 -8 0
v 4 -8 1
v 5 -8 0
v 5 -8 1
v -1 -7 0
v -1 -7 1
v 1 -7 0
v 1 -7 1
v -7 0 0
v -7 0 3
v -3 0 3
v -3 0 6
v -2 0 1
v -2 0 5
v 2 0 1
v 2 0 5
v 3 0 3
v 3 0 6
v 7 0 0
v 7 0 3
v -6 3 -5
v -6 3 -4
v 6 3 -5
v 6 3 -4
v -10 6 2
v -10 6 3
v -7 6 2
v -7 6 3
v 7 6 2
v 7 6 3
v 10 6 2
v 10 6 3
v -6 7 -4
v -6 7 0
v 6 7 -4
v 6 7 0
v -10 8 0
v -10 8 2
v -6 8 0
v -6 8 2
v 6 8 0
v 6 8 2
v 10 8 0
v 10 8 2
v -10 9 -5
v -10 9 0
v -6 9 -5
v -6 9 0
v 6 9 -5
v 6 9 0
v 10 9 -5
v 10 9 0
v -2 10 1
v -2 10 5
v 2 10 1
v 2 10 5
v -10 -10 -5
v -6 -10 -5
v 6 -10 -5
v 10 -10 -5
v -6 -7 -5
v 6 -7 -5
v -6 3 -5
v 6 3 -5
v -10 9 -5
v -6 9 -5
v 6 9 -5
v 10 9 -5
v -6 -9 -4
v 6 -9 -4
v -6 -7 -4
v 6 -7 -4
v -6 3 -4
v 6 3 -4
v -6 7 -4
v 6 7 -4
v -6 -10 -1
v -5 -10 -1
v 5 -10 -1
v 6 -10 -1
v -6 -9 -1
v -5 -9 -1
v 5 -9 -1
v 6 -9 -1
v -2 0 1
v 2 0 1
v -2 10 1
v 2 10 1
v -3 -9 0
v -2 -9 0
v -1 -9 0
v 1 -9 0
v 2 -9 0
v 4 -9 0
v -5 -8 0
v -3 -8 0
v -2 -8 0
v -1 -8 0
v 1 -8 0
v 2 -8 0
v 4 -8 0
v 5 -8 0
v -2 -7 0
v -1 -7 0
v 1 -7 0
v 2 -7 0
v -3 -6 0
v -2 -6 0
v -1 -6 0
v 1 -6 0
v 2 -6 0
v 3 -6 0
v -5 -3 0
v -3 -3 0
v 3 -3 0
v 5 -3 0
v -7 0 0
v 7 0 0
v -7 2 0
v -6 2 0
v 6 2 0
v 7 2 0
v -6 7 0
v 6 7 0
v -10 8 0
v -6 8 0
v 6 8 0
v 10 8 0
v -10 9 0
v -6 9 0
v 6 9 0
v 10 9 0
v -5 -9 1
v -3 -9 1
v -2 -9 1
v -1 -9 1
v 1 -9 1
v 2 -9 1
v 4 -9 1
v 5 -9 1
v -5 -8 1
v -3 -8 1
v -2 -8 1
v -1 -8 1
v 1 -8 1
v 2 -8 1
v 4 -8 1
v 5 -8 1
v -2 -7 1
v -1 -7 1
v 1 -7 1
v 2 -7 1
v -2 -6 1
v -1 -6 1
v 1 -6 1
v 2 -6 1
v -7 2 2
v -6 2 2
v 6 2 2
v 7 2 2
v -10 6 2
v -7 6 2
v 7 6 2
v 10 6 2
v -10 8 2
v -6 8 2
v 6 8 2
v 10 8 2
v -10 -10 3
v -5 -10 3
v 5 -10 3
v 10 -10 3
v -3 -6 3
v 3 -6 3
v -2 -5 3
v 2 -5 3
v -5 -3 3
v -3 -3 3
v -2 -3 3
v 2 -3 3
v 3 -3 3
v 5 -3 3
v -7 0 3
v -3 0 3
v 3 0 3
v 7 0 3
v -10 6 3
v -7 6 3
v 7 6 3
v 10 6 3
v -2 -5 5
v 2 -5 5
v -2 -3 5
v 2 -3 5
v -2 0 5
v 2 0 5
v -2 10 5
v 2 10 5
v -3 -3 6
v 3 -3 6
v -3 0 6
v 3 0 6

# faces
f 3/3/1 2/3/1 1/3/1
f 4/3/1 2/3/1 3/3/1
f 5/3/1 2/3/1 4/3/1
f 6/4/1 4/4/1 3/4/1
f 7/4/1 4/4/1 6/4/1
f 8/4/1 6/4/1 3/4/1
f 9/4/1 6/4/1 8/4/1
f 12/4/1 11/4/1 10/4/1
f 13/4/1 11/4/1 12/4/1
f 15/4/1 14/4/1 13/4/1
f 16/4/1 14/4/1 15/4/1
f 21/2/1 18/2/1 17/2/1
f 22/2/1 18/2/1 21/2/1
f 23/2/1 20/2/1 19/2/1
f 24/2/1 20/2/1 23/2/1
f 29/4/1 28/4/1 27/4/1
f 30/4/1 28/4/1 29/4/1
f 31/4/1 26/4/1 25/4/1
f 32/4/1 26/4/1 31/4/1
f 35/2/1 34/2/1 33/2/1
f 36/2/1 34/2/1 35/2/1
f 41/2/1 38/2/1 37/2/1
f 42/2/1 38/2/1 41/2/1
f 43/2/1 40/2/1 39/2/1
f 44/2/1 40/2/1 43/2/1
f 47/2/1 46/2/1 45/2/1
f 48/2/1 46/2/1 47/2/1
f 51/4/1 50/4/1 49/4/1
f 54/4/1 51/4/1 49/4/1
f 55/4/1 53/4/1 52/4/1
f 56/4/1 54/4/1 49/4/1
f 56/4/1 55/4/1 54/4/1
f 57/4/1 53/4/1 55/4/1
f 57/4/1 55/4/1 56/4/1
f 62/3/1 59/3/1 58/3/1
f 63/3/1 59/3/1 62/3/1
f 64/3/1 61/3/1 60/3/1
f 65/3/1 61/3/1 64/3/1
f 66/3/1 62/3/1 58/3/1
f 67/3/1 62/3/1 66/3/1
f 69/3/1 61/3/1 65/3/1
f 70/3/1 61/3/1 69/3/1
f 71/3/1 61/3/1 70/3/1
f 72/4/1 69/4/1 68/4/1
f 72/4/1 70/4/1 69/4/1
f 73/4/1 70/4/1 72/4/1
f 76/4/1 75/4/1 74/4/1
f 78/4/1 76/4/1 74/4/1
f 78/4/1 77/4/1 76/4/1
f 79/4/1 77/4/1 78/4/1
f 80/4/2 81/4/2 82/4/2
f 80/4/2 82/4/2 84/4/2
f 82/4/2 83/4/2 84/4/2
f 84/4/2 83/4/2 85/4/2
f 86/3/2 87/3/2 90/3/2
f 90/3/2 87/3/2 91/3/2
f 88/3/2 89/3/2 92/3/2
f 92/3/2 89/3/2 93/3/2
f 86/3/2 90/3/2 94/3/2
f 94/3/2 90/3/2 95/3/2
f 93/3/2 89/3/2 97/3/2
f 97/3/2 89/3/2 98/3/2
f 98/3/2 89/3/2 99/3/2
f 96/4/2 97/4/2 100/4/2
f 97/4/2 98/4/2 100/4/2
f 100/4/2 98/4/2 101/4/2
f 102/4/2 103/4/2 104/4/2
f 102/4/2 104/4/2 107/4/2
f 105/4/2 106/4/2 108/4/2
f 102/4/2 107/4/2 109/4/2
f 107/4/2 108/4/2 109/4/2
f 108/4/2 106/4/2 110/4/2
f 109/4/2 108/4/2 110/4/2
f 111/2/2 112/2/2 113/2/2
f 113/2/2 112/2/2 114/2/2
f 115/2/2 116/2/2 119/2/2
f 119/2/2 116/2/2 120/2/2
f 117/2/2 118/2/2 121/2/2
f 121/2/2 118/2/2 122/2/2
f 123/2/2 124/2/2 125/2/2
f 125/2/2 124/2/2 126/2/2
f 127/2/2 128/2/2 131/2/2
f 131/2/2 128/2/2 132/2/2
f 129/2/2 130/2/2 133/2/2
f 133/2/2 130/2/2 134/2/2
f 137/4/2 138/4/2 139/4/2
f 139/4/2 138/4/2 140/4/2
f 135/4/2 136/4/2 141/4/2
f 141/4/2 136/4/2 142/4/2
f 143/4/2 144/4/2 145/4/2
f 145/4/2 144/4/2 146/4/2
f 146/4/2 147/4/2 148/4/2
f 148/4/2 147/4/2 149/4/2
f 150/3/2 151/3/2 152/3/2
f 152/3/2 151/3/2 153/3/2
f 153/3/2 151/3/2 154/3/2
f 152/4/2 153/4/2 155/4/2
f 155/4/2 153/4/2 156/4/2
f 152/4/2 155/4/2 157/4/2
f 157/4/2 155/4/2 158/4/2
f 162/3/3 160/3/3 159/3/3
f 163/3/3 160/3/3 162/3/3
f 164/4/3 161/4/3 160/4/3
f 164/3/3 160/3/3 163/3/3
f 165/4/3 164/4/3 163/4/3
f 166/4/3 161/4/3 164/4/3
f 166/4/3 164/4/3 165/4/3
f 170/4/3 168/4/3 167/4/3
f 171/4/3 168/4/3 170/4/3
f 172/3/3 170/3/3 169/3/3
f 172/3/3 171/3/3 170/3/3
f 173/4/3 168/4/3 171/4/3
f 173/3/3 171/3/3 172/3/3
f 174/4/3 168/4/3 173/4/3
f 177/1/3 176/1/3 175/1/3
f 180/1/3 178/1/3 177/1/3
f 180/2/3 179/2/3 178/2/3
f 181/2/3 179/2/3 180/2/3
f 182/1/3 180/1/3 177/1/3
f 184/1/3 182/1/3 177/1/3
f 184/2/3 183/2/3 182/2/3
f 185/2/3 183/2/3 184/2/3
f 186/1/3 184/1/3 177/1/3
f 188/1/3 186/1/3 177/1/3
f 188/2/3 187/2/3 186/2/3
f 189/2/3 187/2/3 188/2/3
f 190/1/3 188/1/3 177/1/3
f 192/1/3 177/1/3 175/1/3
f 192/1/3 190/1/3 177/1/3
f 193/2/3 191/2/3 190/2/3
f 193/1/3 190/1/3 192/1/3
f 194/2/3 191/2/3 193/2/3
f 195/1/3 192/1/3 175/1/3
f 196/1/3 192/1/3 195/1/3
f 199/2/3 198/2/3 197/2/3
f 200/2/3 198/2/3 199/2/3
f 205/2/3 204/2/3 203/2/3
f 206/2/3 204/2/3 205/2/3
f 209/2/3 208/2/3 207/2/3
f 210/2/3 208/2/3 209/2/3
f 211/1/3 202/1/3 201/1/3
f 212/1/3 202/1/3 211/1/3
f 215/4/3 214/4/3 213/4/3
f 216/4/3 214/4/3 215/4/3
f 218/4/3 214/4/3 216/4/3
f 219/4/3 218/4/3 217/4/3
f 220/4/3 214/4/3 218/4/3
f 220/4/3 218/4/3 219/4/3
f 222/4/3 214/4/3 220/4/3
f 223/4/3 222/4/3 221/4/3
f 224/4/3 214/4/3 222/4/3
f 224/4/3 222/4/3 223/4/3
f 227/4/3 226/4/3 225/4/3
f 228/4/3 226/4/3 227/4/3
f 231/4/3 230/4/3 229/4/3
f 232/4/3 230/4/3 231/4/3
f 234/4/3 233/4/3 232/4/3
f 235/4/3 233/4/3 234/4/3
f 237/4/3 233/4/3 235/4/3
f 239/4/3 237/4/3 236/4/3
f 240/4/3 233/4/3 237/4/3
f 240/4/3 237/4/3 239/4/3
f 241/4/3 239/4/3 238/4/3
f 242/4/3 239/4/3 241/4/3
f 245/4/3 244/4/3 243/4/3
f 246/4/3 244/4/3 245/4/3
f 249/4/3 248/4/3 247/4/3
f 250/4/3 248/4/3 249/4/3
f 251/2/4 252/2/4 253/2/4
f 253/2/4 252/2/4 254/2/4
f 255/2/4 256/2/4 257/2/4
f 257/2/4 256/2/4 258/2/4
f 259/2/4 260/2/4 261/2/4
f 261/2/4 260/2/4 262/2/4
f 263/2/4 264/2/4 265/2/4
f 265/2/4 264/2/4 266/2/4
f 267/2/4 268/2/4 269/2/4
f 269/2/4 268/2/4 270/2/4
f 271/4/4 272/4/4 273/4/4
f 271/4/4 273/4/4 275/4/4
f 273/4/4 274/4/4 275/4/4
f 275/4/4 274/4/4 276/4/4
f 271/4/4 275/4/4 277/4/4
f 276/4/4 274/4/4 278/4/4
f 277/4/4 278/4/4 279/4/4
f 278/4/4 274/4/4 280/4/4
f 279/4/4 278/4/4 280/4/4
f 271/4/4 277/4/4 281/4/4
f 277/4/4 279/4/4 281/4/4
f 281/4/4 279/4/4 282/4/4
f 283/1/4 284/1/4 285/1/4
f 285/1/4 284/1/4 286/1/4
f 287/4/4 288/4/4 289/4/4
f 289/4/4 288/4/4 290/4/4
f 291/4/4 292/4/4 293/4/4
f 293/4/4 292/4/4 294/4/4
f 295/1/4 296/1/4 297/1/4
f 297/1/4 296/1/4 298/1/4
f 299/4/4 300/4/4 301/4/4
f 301/4/4 300/4/4 302/4/4
f 303/4/4 304/4/4 305/4/4
f 305/4/4 304/4/4 306/4/4
f 307/3/4 308/3/4 309/3/4
f 309/3/4 308/3/4 310/3/4
f 311/3/4 312/3/4 313/3/4
f 313/3/4 312/3/4 314/3/4
f 315/4/4 316/4/4 317/4/4
f 317/4/4 316/4/4 318/4/4
f 323/3/5 320/3/5 319/3/5
f 324/3/5 322/3/5 321/3/5
f 325/3/5 323/3/5 319/3/5
f 325/1/5 324/1/5 323/1/5
f 326/3/5 322/3/5 324/3/5
f 326/1/5 324/1/5 325/1/5
f 327/3/5 325/3/5 319/3/5
f 328/3/5 325/3/5 327/3/5
f 329/3/5 322/3/5 326/3/5
f 330/3/5 322/3/5 329/3/5
f 333/1/5 332/1/5 331/1/5
f 334/1/5 332/1/5 333/1/5
f 337/1/5 336/1/5 335/1/5
f 338/1/5 336/1/5 337/1/5
f 343/4/5 340/4/5 339/4/5
f 344/4/5 340/4/5 343/4/5
f 345/4/5 342/4/5 341/4/5
f 346/4/5 342/4/5 345/4/5
f 349/4/5 348/4/5 347/4/5
f 350/4/5 348/4/5 349/4/5
f 351/1/6 352/1/6 358/1/6
f 358/1/6 352/1/6 359/1/6
f 353/1/6 354/1/6 360/1/6
f 360/1/6 354/1/6 361/1/6
f 355/1/6 356/1/6 362/1/6
f 362/1/6 356/1/6 363/1/6
f 358/1/6 359/1/6 365/1/6
f 357/1/6 358/1/6 365/1/6
f 359/1/6 360/1/6 365/1/6
f 365/1/6 360/1/6 366/1/6
f 363/1/6 364/1/6 367/1/6
f 362/1/6 363/1/6 367/1/6
f 361/1/6 362/1/6 367/1/6
f 367/1/6 364/1/6 368/1/6
f 357/1/6 365/1/6 369/1/6
f 369/1/6 365/1/6 370/1/6
f 366/1/6 367/1/6 371/1/6
f 371/1/6 367/1/6 372/1/6
f 368/1/6 364/1/6 373/1/6
f 373/1/6 364/1/6 374/1/6
f 357/1/6 369/1/6 375/1/6
f 375/1/6 369/1/6 376/1/6
f 374/1/6 364/1/6 377/1/6
f 377/1/6 364/1/6 378/1/6
f 379/1/6 380/1/6 381/1/6
f 381/1/6 380/1/6 382/1/6
f 382/1/6 380/1/6 383/1/6
f 383/1/6 380/1/6 384/1/6
f 382/1/6 383/1/6 385/1/6
f 385/1/6 383/1/6 386/1/6
f 387/3/6 388/3/6 391/3/6
f 391/3/6 388/3/6 392/3/6
f 389/3/6 390/3/6 393/3/6
f 393/3/6 390/3/6 394/3/6
f 395/2/6 396/2/6 403/2/6
f 403/2/6 396/2/6 404/2/6
f 397/2/6 398/2/6 405/2/6
f 405/2/6 398/2/6 406/2/6
f 399/2/6 400/2/6 407/2/6
f 407/2/6 400/2/6 408/2/6
f 401/2/6 402/2/6 409/2/6
f 409/2/6 402/2/6 410/2/6
f 406/2/6 407/2/6 412/2/6
f 412/2/6 407/2/6 413/2/6
f 411/2/6 412/2/6 415/2/6
f 415/2/6 412/2/6 416/2/6
f 413/2/6 414/2/6 417/2/6
f 417/2/6 414/2/6 418/2/6
f 419/4/6 420/4/6 424/4/6
f 421/4/6 422/4/6 425/4/6
f 423/4/6 424/4/6 427/4/6
f 424/4/6 420/4/6 428/4/6
f 427/4/6 424/4/6 428/4/6
f 425/4/6 426/4/6 429/4/6
f 421/4/6 425/4/6 429/4/6
f 429/4/6 426/4/6 430/4/6
f 435/4/6 436/4/6 437/4/6
f 437/4/6 436/4/6 438/4/6
f 431/4/6 432/4/6 439/4/6
f 435/4/6 437/4/6 440/4/6
f 440/4/6 437/4/6 441/4/6
f 438/4/6 436/4/6 442/4/6
f 442/4/6 436/4/6 443/4/6
f 433/4/6 434/4/6 444/4/6
f 431/4/6 439/4/6 445/4/6
f 439/4/6 440/4/6 445/4/6
f 445/4/6 440/4/6 446/4/6
f 443/4/6 444/4/6 447/4/6
f 444/4/6 434/4/6 448/4/6
f 447/4/6 444/4/6 448/4/6
f 431/4/6 445/4/6 449/4/6
f 449/4/6 445/4/6 450/4/6
f 448/4/6 434/4/6 451/4/6
f 451/4/6 434/4/6 452/4/6
f 453/4/6 454/4/6 455/4/6
f 455/4/6 454/4/6 456/4/6
f 457/4/6 458/4/6 459/4/6
f 459/4/6 458/4/6 460/4/6
f 461/4/6 462/4/6 463/4/6
f 463/4/6 462/4/6 464/4/6
